<svg width="18" height="19" viewBox="0 0 18 19" fill="none" xmlns="http://www.w3.org/2000/svg">
<path d="M4.05484 1.48102H7.67399V8.59886H0.572266V4.96359C0.572266 3.80602 1.14744 2.7241 2.10702 2.07667C2.68242 1.68844 3.36071 1.48102 4.05484 1.48102Z" stroke="#333333"/>
<path d="M13.5701 1.48096H9.95094V8.59887H17.0527V4.96356C17.0527 3.80598 16.4776 2.72405 15.518 2.07661C14.9426 1.68838 14.2643 1.48096 13.5701 1.48096Z" stroke="#333333"/>
<path d="M13.5692 17.9931L9.95003 17.9931L9.95003 10.8753L17.0518 10.8753L17.0518 14.5106C17.0518 15.6681 16.4766 16.7501 15.517 17.3975C14.9416 17.7857 14.2633 17.9931 13.5692 17.9931Z" stroke="#333333"/>
<path d="M4.05478 17.9931L7.67387 17.9931L7.67387 10.8754L0.572266 10.8754L0.572266 14.5106C0.572266 15.6682 1.14743 16.7501 2.107 17.3975C2.68239 17.7857 3.36067 17.9931 4.05478 17.9931Z" stroke="#333333"/>
</svg>
