<svg width="25" height="24" viewBox="0 0 25 24" fill="none" xmlns="http://www.w3.org/2000/svg">
<path d="M12.5718 0.375C6.16171 0.375 0.946777 5.58994 0.946777 12C0.946777 18.4101 6.16171 23.625 12.5718 23.625C18.9818 23.625 24.1968 18.4101 24.1968 12C24.1968 5.58994 18.9818 0.375 12.5718 0.375ZM20.2579 5.73591C21.6408 7.42556 22.4783 9.57764 22.5001 11.9213C22.1728 11.8521 18.8899 11.1862 15.586 11.6017C15.3164 10.9435 15.0619 10.3645 14.7133 9.65105C18.3846 8.15213 20.0485 6.01908 20.2579 5.73591ZM19.154 4.58766C18.9754 4.84205 17.4807 6.85106 13.9499 8.17448C12.3228 5.18498 10.5194 2.72911 10.2449 2.36161C13.3938 1.60256 16.7121 2.42114 19.154 4.58766ZM8.35026 3.02906C8.61206 3.38808 10.3864 5.847 12.0317 8.77167C7.38698 10.0051 3.29606 9.98733 2.85196 9.98147C3.49584 6.90023 5.57231 4.33936 8.35026 3.02906ZM2.64225 12.0151C2.64225 11.9136 2.64426 11.8125 2.64731 11.7117C3.08175 11.7206 7.89356 11.7826 12.8523 10.2986C13.1365 10.8549 13.4081 11.4196 13.6573 11.9837C10.0667 12.9951 6.80446 15.8991 5.19492 18.6543C3.609 16.894 2.64225 14.5655 2.64225 12.0151ZM6.47695 19.8486C7.51415 17.7283 10.329 14.9913 14.3322 13.6256C15.7263 17.2483 16.3028 20.2844 16.4504 21.1555C13.2577 22.5155 9.4185 22.1424 6.47695 19.8486ZM18.1198 20.2465C18.018 19.6425 17.4895 16.7357 16.1908 13.1668C19.3023 12.6687 22.0361 13.4841 22.3758 13.5913C21.9332 16.3541 20.3474 18.7402 18.1198 20.2465Z" fill="#F8F8F8"/>
</svg>
