<svg width="77" height="105" viewBox="0 0 77 105" fill="none" xmlns="http://www.w3.org/2000/svg">
<path fill-rule="evenodd" clip-rule="evenodd" d="M33.026 85.7569C9.87494 79.6405 -3.95474 55.9917 2.13652 32.9356C8.22777 9.87954 31.9333 -3.85282 55.0843 2.26352C62.5626 4.23922 62.2132 4.22687 58.1075 4.08178C49.5029 3.77769 24.3995 2.89054 20.2758 18.499C17.3714 29.4926 25.399 46.6843 32.0842 61.0009C39.4193 76.7096 45.1382 88.9569 33.026 85.7569ZM43.3391 104.949C62.0829 104.46 76.9008 89.5995 76.4358 71.7562C75.9709 53.9129 60.3992 39.8439 41.6555 40.3323C35.6009 40.4901 35.8693 40.541 39.0232 41.139C45.6332 42.3923 64.9172 46.0486 65.232 58.1282C65.4536 66.6362 56.225 77.7866 48.5397 87.0722C40.1072 97.2607 33.5327 105.204 43.3391 104.949Z" fill="url(#paint0_linear)"/>
<defs>
<linearGradient id="paint0_linear" x1="56.2097" y1="39.953" x2="57.8934" y2="104.569" gradientUnits="userSpaceOnUse">
<stop stop-color="#E95E1D"/>
<stop offset="1" stop-color="#FF5353"/>
</linearGradient>
</defs>
</svg>
