<svg width="24" height="23" viewBox="0 0 24 23" fill="none" xmlns="http://www.w3.org/2000/svg">
<path d="M12.1281 22.1956C11.8012 22.1956 11.4861 22.0718 11.2405 21.8469C10.3131 20.9991 9.4189 20.2025 8.62999 19.4997L8.62596 19.496C6.31301 17.4355 4.31568 15.6561 2.92598 13.9033C1.3725 11.9437 0.648926 10.0857 0.648926 8.05597C0.648926 6.08392 1.29578 4.26459 2.47022 2.93286C3.65866 1.58539 5.28938 0.843262 7.06251 0.843262C8.38775 0.843262 9.60142 1.28125 10.6697 2.14496C11.2088 2.58093 11.6975 3.1145 12.1281 3.73688C12.5588 3.1145 13.0473 2.58093 13.5866 2.14496C14.6549 1.28125 15.8686 0.843262 17.1938 0.843262C18.9668 0.843262 20.5977 1.58539 21.7861 2.93286C22.9605 4.26459 23.6072 6.08392 23.6072 8.05597C23.6072 10.0857 22.8838 11.9437 21.3303 13.9031C19.9406 15.6561 17.9435 17.4354 15.6309 19.4957C14.8406 20.1995 13.945 20.9975 13.0154 21.8473C12.77 22.0718 12.4547 22.1956 12.1281 22.1956ZM7.06251 2.24915C5.66948 2.24915 4.38977 2.83032 3.45881 3.88574C2.51401 4.95709 1.99361 6.43805 1.99361 8.05597C1.99361 9.76306 2.60053 11.2898 3.96134 13.0062C5.2766 14.6653 7.23293 16.4081 9.49808 18.4261L9.50228 18.4298C10.2942 19.1353 11.1919 19.9351 12.1261 20.7891C13.066 19.9335 13.9651 19.1324 14.7586 18.4258C17.0236 16.4078 18.9797 14.6653 20.295 13.0062C21.6556 11.2898 22.2625 9.76306 22.2625 8.05597C22.2625 6.43805 21.7421 4.95709 20.7973 3.88574C19.8665 2.83032 18.5867 2.24915 17.1938 2.24915C16.1733 2.24915 15.2364 2.58826 14.4092 3.25696C13.6719 3.85315 13.1583 4.60681 12.8573 5.13416C12.7024 5.40533 12.4299 5.5672 12.1281 5.5672C11.8263 5.5672 11.5537 5.40533 11.3989 5.13416C11.098 4.60681 10.5844 3.85315 9.84699 3.25696C9.01972 2.58826 8.0828 2.24915 7.06251 2.24915Z" fill="#333333"/>
</svg>
