<svg width="24" height="23" viewBox="0 0 24 23" fill="none" xmlns="http://www.w3.org/2000/svg">
<path fill-rule="evenodd" clip-rule="evenodd" d="M11.2405 21.8469C11.4861 22.0718 11.8012 22.1956 12.1281 22.1956C12.4547 22.1956 12.77 22.0718 13.0154 21.8473C13.945 20.9975 14.8406 20.1995 15.6309 19.4957C17.9435 17.4354 19.9406 15.6561 21.3303 13.9031C22.8838 11.9437 23.6072 10.0857 23.6072 8.05597C23.6072 6.08392 22.9605 4.26459 21.7861 2.93286C20.5977 1.58539 18.9668 0.843262 17.1938 0.843262C15.8686 0.843262 14.6549 1.28125 13.5866 2.14496C13.0473 2.58093 12.5588 3.1145 12.1281 3.73688C11.6975 3.1145 11.2088 2.58093 10.6697 2.14496C9.60142 1.28125 8.38775 0.843262 7.06251 0.843262C5.28938 0.843262 3.65866 1.58539 2.47022 2.93286C1.29578 4.26459 0.648926 6.08392 0.648926 8.05597C0.648926 10.0857 1.3725 11.9437 2.92598 13.9033C4.31568 15.6561 6.31301 17.4355 8.62596 19.496L8.62999 19.4997C9.4189 20.2025 10.3131 20.9991 11.2405 21.8469Z" fill="#333333"/>
</svg>
