<svg width="25" height="25" viewBox="0 0 25 25" fill="none" xmlns="http://www.w3.org/2000/svg">
<path d="M22.8575 0.6875H2.28071C1.33785 0.6875 0.571777 1.45215 0.571777 2.39082V22.6092C0.571777 23.5479 1.33785 24.3125 2.28071 24.3125H22.8575C23.8003 24.3125 24.5718 23.5479 24.5718 22.6092V2.39082C24.5718 1.45215 23.8003 0.6875 22.8575 0.6875ZM7.82535 20.9375H4.26821V9.66289H7.83071V20.9375H7.82535ZM6.04678 8.12305C4.90571 8.12305 3.98428 7.21074 3.98428 6.09277C3.98428 4.9748 4.90571 4.0625 6.04678 4.0625C7.18249 4.0625 8.10928 4.9748 8.10928 6.09277C8.10928 7.21602 7.18785 8.12305 6.04678 8.12305ZM21.1593 20.9375H17.6021V15.4531C17.6021 14.1453 17.5753 12.4631 15.7539 12.4631C13.9003 12.4631 13.6164 13.8869 13.6164 15.3582V20.9375H10.0593V9.66289H13.4718V11.2027H13.52C13.9968 10.3168 15.1593 9.3834 16.8896 9.3834C20.4896 9.3834 21.1593 11.7195 21.1593 14.757V20.9375Z" fill="#F8F8F8"/>
</svg>
