<svg width="61" height="83" viewBox="0 0 61 83" fill="none" xmlns="http://www.w3.org/2000/svg">
<path fill-rule="evenodd" clip-rule="evenodd" d="M26.1305 67.1772C7.90092 62.361 -2.98884 43.7394 1.80754 25.5847C6.60391 7.42987 25.2701 -3.38325 43.4997 1.43287C49.3882 2.98858 49.1131 2.97885 45.8802 2.8646C39.1047 2.62516 19.3378 1.9266 16.0908 14.217C13.8038 22.8736 20.1249 36.4106 25.3889 47.6838C31.1647 60.0531 35.6679 69.6969 26.1305 67.1772ZM34.2529 82.289C49.0121 81.9045 60.68 70.2028 60.3139 56.1526C59.9479 42.1025 47.6864 31.0243 32.9272 31.4089C28.1597 31.5331 28.3711 31.5732 30.8545 32.044C36.0593 33.0309 51.2439 35.91 51.4918 45.4217C51.6663 52.1211 44.3995 60.9011 38.348 68.2127C31.708 76.2354 26.5312 82.4902 34.2529 82.289Z" fill="url(#paint0_linear)"/>
<defs>
<linearGradient id="paint0_linear" x1="44.387" y1="31.1103" x2="45.7128" y2="81.9904" gradientUnits="userSpaceOnUse">
<stop stop-color="#071417"/>
<stop offset="1" stop-color="#90CEDC"/>
</linearGradient>
</defs>
</svg>
