<svg width="24" height="23" viewBox="0 0 24 23" fill="none" xmlns="http://www.w3.org/2000/svg">
<path d="M12.0514 22.1648C11.7246 22.1648 11.4095 22.041 11.1639 21.8162C10.2364 20.9684 9.34224 20.1717 8.55333 19.4689L8.5493 19.4653C6.23635 17.4048 4.23902 15.6254 2.84932 13.8725C1.29584 11.9129 0.572266 10.0549 0.572266 8.02521C0.572266 6.05316 1.21912 4.23383 2.39356 2.9021C3.582 1.55463 5.21272 0.8125 6.98585 0.8125C8.31109 0.8125 9.52476 1.25049 10.593 2.1142C11.1322 2.55017 11.6209 3.08374 12.0514 3.70612C12.4821 3.08374 12.9706 2.55017 13.5099 2.1142C14.5782 1.25049 15.7919 0.8125 17.1172 0.8125C18.8901 0.8125 20.521 1.55463 21.7094 2.9021C22.8839 4.23383 23.5306 6.05316 23.5306 8.02521C23.5306 10.0549 22.8072 11.9129 21.2537 13.8723C19.864 15.6254 17.8668 17.4046 15.5542 19.4649C14.7639 20.1688 13.8683 20.9667 12.9388 21.8165C12.6934 22.041 12.3781 22.1648 12.0514 22.1648ZM6.98585 2.21838C5.59282 2.21838 4.31311 2.79956 3.38215 3.85498C2.43735 4.92633 1.91695 6.40729 1.91695 8.02521C1.91695 9.7323 2.52387 11.259 3.88468 12.9755C5.19994 14.6346 7.15627 16.3774 9.42142 18.3954L9.42562 18.399C10.2175 19.1046 11.1152 19.9044 12.0495 20.7584C12.9894 19.9027 13.8885 19.1016 14.6819 18.395C16.9469 16.377 18.9031 14.6346 20.2183 12.9755C21.5789 11.259 22.1859 9.7323 22.1859 8.02521C22.1859 6.40729 21.6655 4.92633 20.7207 3.85498C19.7899 2.79956 18.51 2.21838 17.1172 2.21838C16.0967 2.21838 15.1598 2.5575 14.3325 3.2262C13.5953 3.82239 13.0817 4.57605 12.7806 5.10339C12.6258 5.37457 12.3532 5.53644 12.0514 5.53644C11.7496 5.53644 11.4771 5.37457 11.3222 5.10339C11.0213 4.57605 10.5077 3.82239 9.77033 3.2262C8.94306 2.5575 8.00614 2.21838 6.98585 2.21838Z" fill="#FF5353"/>
</svg>
