<svg width="22" height="21" viewBox="0 0 22 21" fill="none" xmlns="http://www.w3.org/2000/svg">
<path fill-rule="evenodd" clip-rule="evenodd" d="M16.3601 6.06729L16.8398 6.10968L16.858 6.11288L17.6572 6.27542C19.483 6.64566 20.8569 8.26129 20.8569 10.1956C20.8569 12.4047 19.066 14.1956 16.8569 14.1956L16.8331 14.1955V15.1955L16.8569 15.1956C19.6184 15.1956 21.8569 12.957 21.8569 10.1956C21.8569 7.77625 20.1387 5.75827 17.856 5.29538C17.8566 5.26218 17.8569 5.22891 17.8569 5.19556C17.8569 2.43414 15.6184 0.195557 12.8569 0.195557C11.1823 0.195557 9.69983 1.01892 8.79236 2.28293C8.48938 2.22556 8.17664 2.19556 7.85693 2.19556C5.46863 2.19556 3.47156 3.87 2.97534 6.10892C1.69385 7.01422 0.856934 8.50717 0.856934 10.1956C0.856934 12.957 3.09546 15.1956 5.85693 15.1956H5.86877V14.1955L5.85693 14.1956C3.64783 14.1956 1.85693 12.4047 1.85693 10.1956C1.85693 8.84567 2.52466 7.65164 3.55237 6.92569L3.86804 6.70267L3.95166 6.32529C4.34851 4.53433 5.94763 3.19556 7.85693 3.19556C8.11389 3.19556 8.36438 3.21967 8.60645 3.26547L9.22766 3.38306L9.81287 3.74255C10.324 4.05664 10.746 4.49686 11.0381 5.02094L11.1204 5.16852C11.2529 5.40643 11.5676 5.46817 11.7803 5.298C11.9362 5.17331 11.9886 4.95938 11.9083 4.77667L11.8461 4.63522C11.5382 3.93536 11.0289 3.34302 10.3831 2.93375L9.82849 2.58224C10.5632 1.73157 11.6475 1.19556 12.8569 1.19556C15.037 1.19556 16.8097 2.93954 16.856 5.10849L16.4513 5.07144C16.1763 5.0463 15.933 5.24881 15.9078 5.5238C15.8826 5.7988 16.0851 6.04211 16.3601 6.06729ZM10.8569 10.6615C10.8569 10.3854 11.0808 10.1615 11.3569 10.1615C11.6331 10.1615 11.8569 10.3854 11.8569 10.6615V11.1615V18.9544L14.1853 16.626C14.3806 16.4307 14.6973 16.4307 14.8925 16.626C15.0878 16.8213 15.0878 17.1378 14.8925 17.3331L11.7104 20.5151C11.5153 20.7104 11.1986 20.7104 11.0034 20.5151L7.82141 17.3331C7.6261 17.1378 7.6261 16.8213 7.82141 16.626C8.0166 16.4307 8.33325 16.4307 8.52856 16.626L10.8569 18.9544V11.1615V10.6615Z" fill="#333333"/>
</svg>
