<svg width="17" height="23" viewBox="0 0 17 23" fill="none" xmlns="http://www.w3.org/2000/svg">
<path fill-rule="evenodd" clip-rule="evenodd" d="M7.26943 18.4469C2.3794 17.155 -0.541738 12.1598 0.744874 7.28983C2.03149 2.41986 7.03864 -0.480725 11.9287 0.811186C13.5082 1.2285 13.4344 1.22589 12.5672 1.19524C10.7497 1.13101 5.44732 0.943627 4.57631 4.2405C3.96283 6.56258 5.65845 10.1939 7.0705 13.2178C8.61985 16.5359 9.8278 19.1228 7.26943 18.4469ZM9.44825 22.5006C13.4074 22.3974 16.5372 19.2585 16.439 15.4896C16.3408 11.7207 13.0517 8.749 9.09263 8.85215C7.81376 8.88547 7.87046 8.89622 8.53664 9.02254C9.93281 9.28726 14.006 10.0596 14.0725 12.6111C14.1193 14.4081 12.17 16.7634 10.5467 18.7247C8.76559 20.8767 7.37692 22.5546 9.44825 22.5006Z" fill="url(#paint0_linear)"/>
<defs>
<linearGradient id="paint0_linear" x1="12.1667" y1="8.77206" x2="12.5223" y2="22.4205" gradientUnits="userSpaceOnUse">
<stop stop-color="#E95E1D"/>
<stop offset="1" stop-color="#FF5353"/>
</linearGradient>
</defs>
</svg>
