<svg width="21" height="21" viewBox="0 0 21 21" fill="none" xmlns="http://www.w3.org/2000/svg">
<path d="M0.857178 0.820251V20.8203H20.8572V0.820251H0.857178ZM8.98218 2.07025H12.2441L13.2203 5.97463L8.98218 6.9165V2.07025ZM13.2947 7.23838L12.7872 13.8315L7.3028 12.8315L8.83843 8.22588L13.2947 7.23838ZM2.10718 2.07025H7.73218V7.00775L2.10718 6.49963V2.07025ZM2.10718 7.75775L7.51468 8.249L5.9978 12.7971L2.10718 13.7703V7.75775ZM2.10718 19.5703V15.0578L5.98655 14.0884L6.98218 19.5703H2.10718ZM8.25405 19.5703L7.25843 14.0965L12.8834 15.119L14.3647 19.5703H8.25405ZM19.6072 19.5703H15.6828L14.1591 14.9996L19.6072 13.5134V19.5703ZM19.6072 12.2178L14.0484 13.734L14.5559 7.13275L19.6072 7.63588V12.2178ZM19.6072 6.38275L14.4822 5.87025L13.5328 2.07025H19.6072V6.38275Z" fill="#333333"/>
</svg>
