<svg width="15" height="16" viewBox="0 0 15 16" fill="none" xmlns="http://www.w3.org/2000/svg">
<path fill-rule="evenodd" clip-rule="evenodd" d="M10.9276 0C11.7213 0 12.497 0.237206 13.155 0.681174C14.2524 1.42157 14.9102 2.65883 14.9102 3.98261V7.61791V8.11791H14.9097L14.9097 11.5296C14.9097 12.8534 14.2519 14.0907 13.1546 14.831C12.4965 15.275 11.7209 15.5122 10.9271 15.5122L8.03178 15.5122L7.30794 15.5122L4.41269 15.5122C3.61892 15.5122 2.84326 15.275 2.18525 14.831C1.08792 14.0907 0.430176 12.8534 0.430176 11.5297V8.1179V7.89448V7.6179V3.98263C0.430176 2.65887 1.08793 1.42162 2.18528 0.681229C2.84329 0.237265 3.61897 6.10352e-05 4.41275 6.10352e-05H7.30836V0H10.9276ZM1.43018 8.1179L1.43018 11.5297C1.43018 12.5211 1.92276 13.4476 2.74456 14.0021C3.23734 14.3346 3.81823 14.5122 4.41269 14.5122L7.30794 14.5122L8.03178 14.5122L10.9271 14.5122C11.5216 14.5122 12.1025 14.3346 12.5953 14.0021C13.4171 13.4476 13.9097 12.521 13.9097 11.5296L13.9097 8.11791H7.30836V8.1179H1.43018ZM8.0319 1V1.00006H4.41275C3.81828 1.00006 3.23738 1.1777 2.74458 1.51019C1.92277 2.06467 1.43018 2.99126 1.43018 3.98263V7.1179H8.0319V7.11791H13.9102V3.98261C13.9102 2.99122 13.4176 2.06462 12.5957 1.51014C12.1029 1.17765 11.522 1 10.9276 1H8.0319Z" fill="#333333"/>
</svg>
